<?xml version="1.0" encoding="UTF-8"?>
<svg xmlns="http://www.w3.org/2000/svg" viewBox="400 0 202 182">
  <defs>
    <style>.cls-2 { fill: #333; fill-rule: evenodd; stroke-width: 0px; }</style>
  </defs>
  <path class="cls-2" d="M498.78,126.62l-.1,14.41c0,1.2-.4,2.37-1.13,3.32l-16.19,20.98c-.36.47-.56,1.05-.57,1.64l-.04,7.21c0,1.49-1.22,2.7-2.72,2.7h-4.87c-1.5,0-2.72-1.21-2.72-2.71l.1-47.54c0-3,2.44-5.43,5.44-5.43h17.36c3,0,5.43,2.43,5.44,5.43ZM593.13,46.47h-44.1c-1.37,0-2.68.54-3.65,1.51l-9.94,9.37c-.97.97-2.28,1.51-3.65,1.51h-22.23c-2.85,0-5.16-2.3-5.16-5.15h0v-15.07c0-1.43.6-2.79,1.64-3.77l18.21-16.94c1.02-.95,1.61-2.26,1.64-3.65l.15-6.24c.07-2.8,2.36-5.03,5.16-5.03h61.95c2.84,0,5.15,2.31,5.15,5.15v33.16c-.01,2.85-2.32,5.15-5.17,5.15h0ZM487.08,168.1v6.05c0,1.5,1.22,2.72,2.72,2.71h23.29c1.5,0,2.72-1.21,2.72-2.71v-6.05c0-1.18-.38-2.32-1.09-3.26l-8.93-11.85c-1.81-2.4-5.22-2.88-7.62-1.07-.4.3-.76.66-1.07,1.07l-8.93,11.85c-.71.94-1.09,2.09-1.09,3.26ZM481.1,11.43v-3.24c0-2.85,2.31-5.15,5.16-5.15h29.29c2.85,0,5.16,2.3,5.16,5.15h0v3.24c0,1.4-.57,2.74-1.58,3.71l-14.64,14.1c-2,1.92-5.16,1.92-7.16,0l-14.65-14.1c-1.01-.97-1.58-2.31-1.58-3.71ZM470.45,69.6v40.97c0,2.87,2.33,5.19,5.2,5.19h51.6c2.87,0,5.2-2.32,5.2-5.19h0v-40.97c0-2.87-2.33-5.19-5.2-5.19,0,0,0,0,0,0h-51.6c-2.87,0-5.2,2.32-5.2,5.19h0ZM592.85,52.96h-41.63c-1.44,0-2.83.57-3.85,1.59l-7.08,7.07c-1.02,1.02-1.59,2.4-1.59,3.84v19.05c0,3,2.44,5.43,5.44,5.43h48.72c3,0,5.44-2.43,5.44-5.43v-26.11c0-3-2.44-5.43-5.44-5.43h0ZM408.95,52.95h42.43c1.44,0,2.82.57,3.85,1.59l7.08,7.07c1.02,1.02,1.59,2.4,1.59,3.84v19.05c0,3-2.44,5.43-5.44,5.43h-49.5c-3,0-5.44-2.43-5.44-5.43v-26.11c0-3,2.44-5.43,5.44-5.43,0,0,0,0,0,0h0ZM598.29,127.94c0,3-2.44,5.43-5.44,5.43h-41.63c-1.44,0-2.83-.57-3.85-1.59l-7.08-8.15c-1.02-1.02-1.59-2.4-1.59-3.84v-18.5c0-2.7,2.19-4.89,4.89-4.89h49.26c3,0,5.44,2.43,5.44,5.43v26.11h0ZM408.95,133.37h42.43c1.44,0,2.82-.57,3.85-1.59l7.08-7.07c1.02-1.02,1.59-2.4,1.59-3.84v-19.05c0-3-2.44-5.43-5.44-5.43h-49.5c-3,0-5.44,2.43-5.44,5.43v26.11c0,3,2.44,5.43,5.44,5.43,0,0,0,0,0,0h0ZM592.85,139.84h-43.53c-.23,0-.46-.08-.65-.22l-6.49-4.85c-.96-.72-2.33-.52-3.05.44-.28.38-.43.83-.43,1.3v34.87c0,3,2.44,5.43,5.44,5.43h48.72c3,0,5.44-2.43,5.44-5.43v-26.12c0-3-2.44-5.43-5.43-5.42h0ZM408.95,139.84h44.32c.24,0,.46-.08.65-.22l6.49-4.85c.96-.72,2.33-.52,3.05.44.28.38.43.83.43,1.3v34.87c0,3-2.44,5.43-5.44,5.43h-49.5c-3,0-5.44-2.43-5.44-5.43v-26.12c0-3,2.44-5.43,5.44-5.42h0,0ZM408.7,46.46h44.1c1.37,0,2.68.54,3.65,1.51l9.94,9.37c.97.97,2.28,1.51,3.65,1.51h22.24c2.85,0,5.16-2.3,5.16-5.15h0v-15.07c0-1.43-.6-2.8-1.64-3.77l-18.22-16.94c-1.02-.95-1.61-2.26-1.64-3.65l-.14-6.24c-.07-2.8-2.36-5.03-5.16-5.03h-61.94c-2.85,0-5.16,2.3-5.16,5.15h0s.01,33.16.01,33.16c0,2.85,2.31,5.15,5.15,5.15h0ZM504.12,126.62l-.1,14.41c0,1.2.4,2.37,1.13,3.32l16.19,20.98c.36.47.56,1.05.57,1.64l.04,7.21c0,1.49,1.22,2.7,2.72,2.7h4.86c1.5,0,2.72-1.21,2.72-2.71l.1-47.54c0-3-2.44-5.43-5.44-5.43h-17.36c-3,0-5.43,2.43-5.44,5.43h0Z"/>
</svg>
