<?xml version="1.0" encoding="UTF-8"?>
<svg id="Layer_2" data-name="Layer 2" xmlns="http://www.w3.org/2000/svg" version="1.1" viewBox="0 0 1000 322">
  <defs>
    <style>
      .cls-1, .cls-2 {
        fill: #333;
        stroke-width: 0px;
      }

      .cls-2 {
        fill-rule: evenodd;
      }
    </style>
  </defs>
  <path id="Logo" class="cls-2" d="M498.78,126.62l-.1,14.41c0,1.2-.4,2.37-1.13,3.32l-16.19,20.98c-.36.47-.56,1.05-.57,1.64l-.04,7.21c0,1.49-1.22,2.7-2.72,2.7h-4.87c-1.5,0-2.72-1.21-2.72-2.71l.1-47.54c0-3,2.44-5.43,5.44-5.43h17.36c3,0,5.43,2.43,5.44,5.43ZM593.13,46.47h-44.1c-1.37,0-2.68.54-3.65,1.51l-9.94,9.37c-.97.97-2.28,1.51-3.65,1.51h-22.23c-2.85,0-5.16-2.3-5.16-5.15h0v-15.07c0-1.43.6-2.79,1.64-3.77l18.21-16.94c1.02-.95,1.61-2.26,1.64-3.65l.15-6.24c.07-2.8,2.36-5.03,5.16-5.03h61.95c2.84,0,5.15,2.31,5.15,5.15v33.16c-.01,2.85-2.32,5.15-5.17,5.15h0ZM487.08,168.1v6.05c0,1.5,1.22,2.72,2.72,2.71h23.29c1.5,0,2.72-1.21,2.72-2.71v-6.05c0-1.18-.38-2.32-1.09-3.26l-8.93-11.85c-1.81-2.4-5.22-2.88-7.62-1.07-.4.3-.76.66-1.07,1.07l-8.93,11.85c-.71.94-1.09,2.09-1.09,3.26ZM481.1,11.43v-3.24c0-2.85,2.31-5.15,5.16-5.15h29.29c2.85,0,5.16,2.3,5.16,5.15h0v3.24c0,1.4-.57,2.74-1.58,3.71l-14.64,14.1c-2,1.92-5.16,1.92-7.16,0l-14.65-14.1c-1.01-.97-1.58-2.31-1.58-3.71ZM470.45,69.6v40.97c0,2.87,2.33,5.19,5.2,5.19h51.6c2.87,0,5.2-2.32,5.2-5.19h0v-40.97c0-2.87-2.33-5.19-5.2-5.19,0,0,0,0,0,0h-51.6c-2.87,0-5.2,2.32-5.2,5.19h0ZM592.85,52.96h-41.63c-1.44,0-2.83.57-3.85,1.59l-7.08,7.07c-1.02,1.02-1.59,2.4-1.59,3.84v19.05c0,3,2.44,5.43,5.44,5.43h48.72c3,0,5.44-2.43,5.44-5.43v-26.11c0-3-2.44-5.43-5.44-5.43h0ZM408.95,52.95h42.43c1.44,0,2.82.57,3.85,1.59l7.08,7.07c1.02,1.02,1.59,2.4,1.59,3.84v19.05c0,3-2.44,5.43-5.44,5.43h-49.5c-3,0-5.44-2.43-5.44-5.43v-26.11c0-3,2.44-5.43,5.44-5.43,0,0,0,0,0,0h0ZM598.29,127.94c0,3-2.44,5.43-5.44,5.43h-41.63c-1.44,0-2.83-.57-3.85-1.59l-7.08-8.15c-1.02-1.02-1.59-2.4-1.59-3.84v-18.5c0-2.7,2.19-4.89,4.89-4.89h49.26c3,0,5.44,2.43,5.44,5.43v26.11h0ZM408.95,133.37h42.43c1.44,0,2.82-.57,3.85-1.59l7.08-7.07c1.02-1.02,1.59-2.4,1.59-3.84v-19.05c0-3-2.44-5.43-5.44-5.43h-49.5c-3,0-5.44,2.43-5.44,5.43v26.11c0,3,2.44,5.43,5.44,5.43,0,0,0,0,0,0h0ZM592.85,139.84h-43.53c-.23,0-.46-.08-.65-.22l-6.49-4.85c-.96-.72-2.33-.52-3.05.44-.28.38-.43.83-.43,1.3v34.87c0,3,2.44,5.43,5.44,5.43h48.72c3,0,5.44-2.43,5.44-5.43v-26.12c0-3-2.44-5.43-5.43-5.42h0ZM408.95,139.84h44.32c.24,0,.46-.08.65-.22l6.49-4.85c.96-.72,2.33-.52,3.05.44.28.38.43.83.43,1.3v34.87c0,3-2.44,5.43-5.44,5.43h-49.5c-3,0-5.44-2.43-5.44-5.43v-26.12c0-3,2.44-5.43,5.44-5.42h0,0ZM408.7,46.46h44.1c1.37,0,2.68.54,3.65,1.51l9.94,9.37c.97.97,2.28,1.51,3.65,1.51h22.24c2.85,0,5.16-2.3,5.16-5.15h0v-15.07c0-1.43-.6-2.8-1.64-3.77l-18.22-16.94c-1.02-.95-1.61-2.26-1.64-3.65l-.14-6.24c-.07-2.8-2.36-5.03-5.16-5.03h-61.94c-2.85,0-5.16,2.3-5.16,5.15h0s.01,33.16.01,33.16c0,2.85,2.31,5.15,5.15,5.15h0ZM504.12,126.62l-.1,14.41c0,1.2.4,2.37,1.13,3.32l16.19,20.98c.36.47.56,1.05.57,1.64l.04,7.21c0,1.49,1.22,2.7,2.72,2.7h4.86c1.5,0,2.72-1.21,2.72-2.71l.1-47.54c0-3-2.44-5.43-5.44-5.43h-17.36c-3,0-5.43,2.43-5.44,5.43h0Z"/>
  <g>
    <path class="cls-1" d="M23.46,319.07v-52H4.56v-12.4h53.9v12.4h-18.9v52h-16.1Z"/>
    <path class="cls-1" d="M111.06,319.07v-64.4h32.2c7.6,0,13.2,2,16.8,6,3.6,4,5.4,9.37,5.4,16.1,0,4.33-1.1,8.13-3.3,11.4-2.2,3.27-5.2,5.7-9,7.3.93.73,1.68,1.55,2.25,2.45.57.9,1.18,2.15,1.85,3.75l7.6,17.4h-16.8l-7.2-16.4c-.6-1.4-1.37-2.42-2.3-3.05-.93-.63-2.27-.95-4-.95h-7.4v20.4h-16.1ZM127.16,286.27h11.9c3.13,0,5.58-.78,7.35-2.35,1.77-1.57,2.65-3.95,2.65-7.15,0-6.47-3.1-9.7-9.3-9.7h-12.6v19.2Z"/>
    <path class="cls-1" d="M212.56,319.07l24.6-64.4h17.4l24.6,64.4h-16.8l-5.8-14.6h-21.5l-5.7,14.6h-16.8ZM237.26,292.57h17.1l-8.6-22.4-8.5,22.4Z"/>
    <path class="cls-1" d="M332.76,319.07v-64.4h13.8l27.4,38.5v-38.5h16.2v64.4h-13.9l-27.4-38.4v38.4h-16.1Z"/>
    <path class="cls-1" d="M466.26,320.07c-4.27,0-8.25-.32-11.95-.95-3.7-.63-6.88-1.55-9.55-2.75v-13.7c2.93,1.27,6.18,2.3,9.75,3.1s6.95,1.2,10.15,1.2c4,0,6.98-.37,8.95-1.1,1.97-.73,2.95-2.33,2.95-4.8,0-1.67-.48-3-1.45-4-.97-1-2.53-1.88-4.7-2.65-2.17-.77-5.12-1.68-8.85-2.75-4.4-1.33-7.9-2.82-10.5-4.45-2.6-1.63-4.47-3.62-5.6-5.95-1.13-2.33-1.7-5.2-1.7-8.6,0-6.13,2.2-10.83,6.6-14.1,4.4-3.27,10.9-4.9,19.5-4.9,3.73,0,7.37.28,10.9.85,3.53.57,6.4,1.22,8.6,1.95v13.8c-2.87-1.13-5.75-1.97-8.65-2.5-2.9-.53-5.72-.8-8.45-.8-3.6,0-6.52.33-8.75,1-2.23.67-3.35,2.2-3.35,4.6,0,1.4.4,2.52,1.2,3.35.8.83,2.18,1.58,4.15,2.25,1.97.67,4.65,1.47,8.05,2.4,5.27,1.4,9.3,3.08,12.1,5.05,2.8,1.97,4.73,4.23,5.8,6.8,1.07,2.57,1.6,5.45,1.6,8.65,0,5.67-2.2,10.25-6.6,13.75-4.4,3.5-11.13,5.25-20.2,5.25Z"/>
    <path class="cls-1" d="M538.16,319.07l24.6-64.4h17.4l24.6,64.4h-16.8l-5.8-14.6h-21.5l-5.7,14.6h-16.8ZM562.86,292.57h17.1l-8.6-22.4-8.5,22.4Z"/>
    <path class="cls-1" d="M685.46,320.07c-11.27,0-19.85-2.88-25.75-8.65-5.9-5.77-8.85-13.78-8.85-24.05s2.88-19.03,8.65-24.9c5.77-5.87,14.38-8.8,25.85-8.8,3.93,0,7.45.3,10.55.9,3.1.6,6.08,1.4,8.95,2.4v14.1c-5.8-2.4-11.9-3.6-18.3-3.6s-11.55,1.6-14.65,4.8c-3.1,3.2-4.65,8.23-4.65,15.1s1.63,11.33,4.9,14.4c3.27,3.07,8.13,4.6,14.6,4.6,3.13,0,6.23-.28,9.3-.85,3.07-.57,6.03-1.45,8.9-2.65v14.2c-2.8.93-5.77,1.67-8.9,2.2-3.13.53-6.67.8-10.6.8Z"/>
    <path class="cls-1" d="M773.46,319.07v-52h-18.9v-12.4h53.9v12.4h-18.9v52h-16.1Z"/>
    <path class="cls-1" d="M861.06,319.07v-64.4h16.1v64.4h-16.1Z"/>
    <path class="cls-1" d="M928.76,319.07l23.5-32.4-22.8-32h19.2l13.3,19.2,13.4-19.2h19.2l-22.8,32,23.5,32.4h-19.4l-13.9-19.5-13.8,19.5h-19.4Z"/>
  </g>
</svg>